<mxfile host="app.diagrams.net" modified="2023-09-24T09:43:40.510Z" agent="Mozilla/5.0 (Windows NT 10.0; Win64; x64; rv:109.0) Gecko/20100101 Firefox/117.0" etag="bW7GxXaD19ejQp4r_QvI" version="21.6.9">
  <diagram name="PÃ¡gina-1" id="FiOet96HrItMn_RVKv0E">
    <mxGraphModel dx="724" dy="371" grid="1" gridSize="10" guides="1" tooltips="1" connect="1" arrows="1" fold="1" page="1" pageScale="1" pageWidth="827" pageHeight="1169" math="0" shadow="0">
      <root>
        <mxCell id="0" />
        <mxCell id="1" parent="0" />
        <mxCell id="8ZEkZ_1gqcjGrcNvVuLw-6" style="edgeStyle=orthogonalEdgeStyle;rounded=0;orthogonalLoop=1;jettySize=auto;html=1;entryX=0;entryY=0.5;entryDx=0;entryDy=0;" edge="1" parent="1" source="8ZEkZ_1gqcjGrcNvVuLw-1" target="8ZEkZ_1gqcjGrcNvVuLw-2">
          <mxGeometry relative="1" as="geometry" />
        </mxCell>
        <mxCell id="8ZEkZ_1gqcjGrcNvVuLw-7" value="&lt;div&gt;&amp;lt;concepts&amp;gt;&lt;/div&gt;" style="edgeLabel;html=1;align=center;verticalAlign=middle;resizable=0;points=[];" vertex="1" connectable="0" parent="8ZEkZ_1gqcjGrcNvVuLw-6">
          <mxGeometry x="0.1486" y="1" relative="1" as="geometry">
            <mxPoint as="offset" />
          </mxGeometry>
        </mxCell>
        <mxCell id="8ZEkZ_1gqcjGrcNvVuLw-1" value="DEFAULT" style="ellipse;whiteSpace=wrap;html=1;aspect=fixed;" vertex="1" parent="1">
          <mxGeometry x="120.1" y="200" width="80" height="80" as="geometry" />
        </mxCell>
        <mxCell id="8ZEkZ_1gqcjGrcNvVuLw-8" style="edgeStyle=orthogonalEdgeStyle;rounded=0;orthogonalLoop=1;jettySize=auto;html=1;" edge="1" parent="1" source="8ZEkZ_1gqcjGrcNvVuLw-2" target="8ZEkZ_1gqcjGrcNvVuLw-3">
          <mxGeometry relative="1" as="geometry" />
        </mxCell>
        <mxCell id="8ZEkZ_1gqcjGrcNvVuLw-9" value="&amp;lt;concept&amp;gt;" style="edgeLabel;html=1;align=center;verticalAlign=middle;resizable=0;points=[];" vertex="1" connectable="0" parent="8ZEkZ_1gqcjGrcNvVuLw-8">
          <mxGeometry x="0.2386" y="2" relative="1" as="geometry">
            <mxPoint x="-23" as="offset" />
          </mxGeometry>
        </mxCell>
        <mxCell id="8ZEkZ_1gqcjGrcNvVuLw-19" style="edgeStyle=orthogonalEdgeStyle;rounded=0;orthogonalLoop=1;jettySize=auto;html=1;entryX=0.5;entryY=0;entryDx=0;entryDy=0;" edge="1" parent="1" source="8ZEkZ_1gqcjGrcNvVuLw-2" target="8ZEkZ_1gqcjGrcNvVuLw-3">
          <mxGeometry relative="1" as="geometry">
            <mxPoint x="374" y="150" as="targetPoint" />
            <Array as="points">
              <mxPoint x="374" y="110" />
              <mxPoint x="630" y="110" />
            </Array>
          </mxGeometry>
        </mxCell>
        <mxCell id="8ZEkZ_1gqcjGrcNvVuLw-20" value="&amp;lt;/concepts&amp;gt;" style="edgeLabel;html=1;align=center;verticalAlign=middle;resizable=0;points=[];" vertex="1" connectable="0" parent="8ZEkZ_1gqcjGrcNvVuLw-19">
          <mxGeometry x="-0.1147" y="-2" relative="1" as="geometry">
            <mxPoint x="23" y="-2" as="offset" />
          </mxGeometry>
        </mxCell>
        <mxCell id="8ZEkZ_1gqcjGrcNvVuLw-21" style="edgeStyle=orthogonalEdgeStyle;rounded=0;orthogonalLoop=1;jettySize=auto;html=1;exitX=0.5;exitY=0;exitDx=0;exitDy=0;entryX=0.5;entryY=0;entryDx=0;entryDy=0;" edge="1" parent="1" source="8ZEkZ_1gqcjGrcNvVuLw-2" target="8ZEkZ_1gqcjGrcNvVuLw-1">
          <mxGeometry relative="1" as="geometry">
            <Array as="points">
              <mxPoint x="374" y="110" />
              <mxPoint x="160" y="110" />
            </Array>
          </mxGeometry>
        </mxCell>
        <mxCell id="8ZEkZ_1gqcjGrcNvVuLw-23" value="&amp;lt;/concepts&amp;gt;" style="edgeLabel;html=1;align=center;verticalAlign=middle;resizable=0;points=[];" vertex="1" connectable="0" parent="8ZEkZ_1gqcjGrcNvVuLw-21">
          <mxGeometry x="-0.2435" y="-4" relative="1" as="geometry">
            <mxPoint x="-55" y="4" as="offset" />
          </mxGeometry>
        </mxCell>
        <mxCell id="8ZEkZ_1gqcjGrcNvVuLw-2" value="&lt;div&gt;CONCEPTS&lt;/div&gt;" style="ellipse;whiteSpace=wrap;html=1;aspect=fixed;" vertex="1" parent="1">
          <mxGeometry x="334" y="200" width="80" height="80" as="geometry" />
        </mxCell>
        <mxCell id="8ZEkZ_1gqcjGrcNvVuLw-15" style="edgeStyle=orthogonalEdgeStyle;rounded=0;orthogonalLoop=1;jettySize=auto;html=1;entryX=0.5;entryY=1;entryDx=0;entryDy=0;" edge="1" parent="1" source="8ZEkZ_1gqcjGrcNvVuLw-3" target="8ZEkZ_1gqcjGrcNvVuLw-2">
          <mxGeometry relative="1" as="geometry">
            <mxPoint x="600" y="340" as="targetPoint" />
            <Array as="points">
              <mxPoint x="630" y="300" />
              <mxPoint x="374" y="300" />
            </Array>
          </mxGeometry>
        </mxCell>
        <mxCell id="8ZEkZ_1gqcjGrcNvVuLw-16" value="&lt;div&gt;&amp;lt;/concept&amp;gt;&lt;/div&gt;" style="edgeLabel;html=1;align=center;verticalAlign=middle;resizable=0;points=[];" vertex="1" connectable="0" parent="8ZEkZ_1gqcjGrcNvVuLw-15">
          <mxGeometry x="0.3919" y="2" relative="1" as="geometry">
            <mxPoint x="56" as="offset" />
          </mxGeometry>
        </mxCell>
        <mxCell id="8ZEkZ_1gqcjGrcNvVuLw-17" style="edgeStyle=orthogonalEdgeStyle;rounded=0;orthogonalLoop=1;jettySize=auto;html=1;exitX=0.5;exitY=1;exitDx=0;exitDy=0;entryX=0.5;entryY=1;entryDx=0;entryDy=0;" edge="1" parent="1" source="8ZEkZ_1gqcjGrcNvVuLw-3" target="8ZEkZ_1gqcjGrcNvVuLw-2">
          <mxGeometry relative="1" as="geometry">
            <mxPoint x="630" y="350" as="targetPoint" />
            <Array as="points">
              <mxPoint x="630" y="340" />
              <mxPoint x="374" y="340" />
            </Array>
          </mxGeometry>
        </mxCell>
        <mxCell id="8ZEkZ_1gqcjGrcNvVuLw-18" value="&amp;lt;concepts&amp;gt;" style="edgeLabel;html=1;align=center;verticalAlign=middle;resizable=0;points=[];" vertex="1" connectable="0" parent="8ZEkZ_1gqcjGrcNvVuLw-17">
          <mxGeometry x="0.0904" y="2" relative="1" as="geometry">
            <mxPoint x="15" as="offset" />
          </mxGeometry>
        </mxCell>
        <mxCell id="8ZEkZ_1gqcjGrcNvVuLw-3" value="&lt;div&gt;CONCEPT&lt;/div&gt;" style="ellipse;whiteSpace=wrap;html=1;aspect=fixed;" vertex="1" parent="1">
          <mxGeometry x="590" y="200" width="80" height="80" as="geometry" />
        </mxCell>
        <mxCell id="8ZEkZ_1gqcjGrcNvVuLw-4" value="" style="curved=1;endArrow=classic;html=1;rounded=0;exitX=0;exitY=0.5;exitDx=0;exitDy=0;entryX=0.05;entryY=0.325;entryDx=0;entryDy=0;entryPerimeter=0;" edge="1" parent="1" source="8ZEkZ_1gqcjGrcNvVuLw-1" target="8ZEkZ_1gqcjGrcNvVuLw-1">
          <mxGeometry width="50" height="50" relative="1" as="geometry">
            <mxPoint x="40.1" y="240" as="sourcePoint" />
            <mxPoint x="90.1" y="190" as="targetPoint" />
            <Array as="points">
              <mxPoint x="80.1" y="240" />
              <mxPoint x="90.1" y="190" />
            </Array>
          </mxGeometry>
        </mxCell>
        <mxCell id="8ZEkZ_1gqcjGrcNvVuLw-5" value="&lt;div&gt;ANYTHING&lt;/div&gt;&lt;div&gt;&lt;br&gt;&lt;/div&gt;" style="edgeLabel;html=1;align=center;verticalAlign=middle;resizable=0;points=[];" vertex="1" connectable="0" parent="8ZEkZ_1gqcjGrcNvVuLw-4">
          <mxGeometry x="0.0021" y="1" relative="1" as="geometry">
            <mxPoint x="-35" y="10" as="offset" />
          </mxGeometry>
        </mxCell>
        <mxCell id="8ZEkZ_1gqcjGrcNvVuLw-13" value="" style="curved=1;endArrow=classic;html=1;rounded=0;exitX=1;exitY=0.5;exitDx=0;exitDy=0;entryX=0.938;entryY=0.288;entryDx=0;entryDy=0;entryPerimeter=0;" edge="1" parent="1" source="8ZEkZ_1gqcjGrcNvVuLw-3" target="8ZEkZ_1gqcjGrcNvVuLw-3">
          <mxGeometry width="50" height="50" relative="1" as="geometry">
            <mxPoint x="710" y="230" as="sourcePoint" />
            <mxPoint x="760" y="180" as="targetPoint" />
            <Array as="points">
              <mxPoint x="700" y="250" />
              <mxPoint x="690" y="210" />
            </Array>
          </mxGeometry>
        </mxCell>
        <mxCell id="8ZEkZ_1gqcjGrcNvVuLw-14" value="&lt;div&gt;&amp;lt;code&amp;gt; &amp;lt;/code&lt;/div&gt;&lt;div&gt;&amp;lt;label&amp;gt; &amp;lt;/label&amp;gt;&lt;/div&gt;" style="text;html=1;align=center;verticalAlign=middle;resizable=0;points=[];autosize=1;strokeColor=none;fillColor=none;" vertex="1" parent="1">
          <mxGeometry x="680" y="190" width="110" height="40" as="geometry" />
        </mxCell>
      </root>
    </mxGraphModel>
  </diagram>
</mxfile>
